<svg xmlns="http://www.w3.org/2000/svg" viewBox="0 0 194 194"><defs><style>.cls-1{fill:#262626;}.cls-2{fill:#fff;}</style></defs><g id="Layer_2" data-name="Layer 2"><g id="Layer_1-2" data-name="Layer 1"><circle class="cls-1" cx="97" cy="97" r="97"/><path class="cls-2" d="M151.32,63.31a45.26,45.26,0,0,1-12.8,3.52,22.29,22.29,0,0,0,9.79-12.35,44.52,44.52,0,0,1-14.15,5.41A22.3,22.3,0,0,0,95.61,75.14a22.87,22.87,0,0,0,.57,5.08,63.4,63.4,0,0,1-46-23.16,22.3,22.3,0,0,0,6.85,29.67A22.28,22.28,0,0,1,47,83.94v.3a22.29,22.29,0,0,0,17.89,21.84,22.64,22.64,0,0,1-10.06.39A22.28,22.28,0,0,0,75.59,122a45,45,0,0,1-33,9.17,62.82,62.82,0,0,0,34.24,10c41.08,0,63.42-34,63.42-63.4v-2.9A45.21,45.21,0,0,0,151.32,63.31Z"/></g></g></svg>