<svg xmlns="http://www.w3.org/2000/svg" viewBox="0 0 194 194"><defs><style>.cls-1{fill:#262626;}.cls-2,.cls-3{fill:#fff;}.cls-2{fill-rule:evenodd;}</style></defs><g id="Layer_2" data-name="Layer 2"><g id="Layer_1-2" data-name="Layer 1"><circle class="cls-1" cx="97" cy="97" r="97"/><path class="cls-2" d="M37.45,80a2.43,2.43,0,0,0-2.65,2.44V116.9c0,2.52,2.82,3.15,5.47,1.61l25.32-18.33c1.59-1.09,1.58-2.7.07-3.58L40.35,80.86A5.65,5.65,0,0,0,37.45,80Z"/><path class="cls-2" d="M156.55,80a2.43,2.43,0,0,1,2.65,2.44V116.9c0,2.52-2.82,3.15-5.47,1.61l-25.32-18.33c-1.6-1.09-1.59-2.7-.07-3.58l25.31-15.74A5.65,5.65,0,0,1,156.55,80Z"/><path class="cls-3" d="M51.7,51.54A16.79,16.79,0,0,0,36.18,61.89c-.87,2.12.46,5,2.39,6.22L77.31,92.93c7.36,4.71,13.59,6.69,19.83,6.69s12.42-2,19.79-6.69l38.78-24.85c1.93-1.23,3.26-4.11,2.38-6.22a16.79,16.79,0,0,0-15.5-10.32Z"/><path class="cls-3" d="M73.55,104.78,39.8,130.28c-1.82,1.38-2.54,4.23-1.1,6a16.78,16.78,0,0,0,13,6.18h90.56a16.76,16.76,0,0,0,13-6.18c1.44-1.77.72-4.62-1.1-6l-33.75-25.5a5.24,5.24,0,0,0-5-.42c-4.4,2.07-11.62,4.66-18.46,4.7s-14.07-2.63-18.47-4.7A5.25,5.25,0,0,0,73.55,104.78Z"/></g></g></svg>