<svg xmlns="http://www.w3.org/2000/svg" viewBox="0 0 194 194"><defs><style>.cls-1{fill:#262626;}.cls-2{fill:#fff;}</style></defs><g id="Layer_2" data-name="Layer 2"><g id="Layer_1-2" data-name="Layer 1"><circle class="cls-1" cx="97" cy="97" r="97"/><g id="kM49Rd.tif"><path class="cls-2" d="M135.17,24.46V47.83h-13.5a29.14,29.14,0,0,0-4,.24,14.78,14.78,0,0,0-3.23.78A8.39,8.39,0,0,0,110,52.41a10.23,10.23,0,0,0-1.1,2.67,19.19,19.19,0,0,0-.56,4.34c0,.46,0,.91,0,1.37V76.87c0,.14,0,.29,0,.47h25.86c-1.13,8.71-2.24,17.38-3.37,26.07H110.41c-.68,0-1.35,0-2.07,0v67.09H81.42c0-.17,0-.32,0-.48V104c0-.13,0-.26,0-.39a1.48,1.48,0,0,0-.05-.24H58.86c0-.19,0-.35,0-.5q0-9.87,0-19.74c0-1.81,0-3.61,0-5.42,0-.13,0-.26,0-.42H81.4V58.1c0-1.74.08-3.48.26-5.21a42.34,42.34,0,0,1,.69-4.47,34.55,34.55,0,0,1,2.8-8.26,28.07,28.07,0,0,1,9.58-11.09,30.87,30.87,0,0,1,8.61-4,36.27,36.27,0,0,1,5.24-1.14q1.24-.18,2.49-.27c1-.08,2-.17,3-.17,2.19,0,4.37,0,6.56.06.7,0,1.4,0,2.1.06l3.46.18,2.63.14,1,.07,2.79.24,2.27.23Z"/></g></g></g></svg>