<svg xmlns="http://www.w3.org/2000/svg" viewBox="0 0 90.2 64.25"><g id="Layer_2" data-name="Layer 2"><g id="Layer_1-2" data-name="Layer 1"><path id="mid" d="M83.5,38.3a6.44,6.44,0,0,0,6.7-6.6,6.6,6.6,0,0,0-6.7-6.8H6.8A6.74,6.74,0,0,0,0,31.7a6.58,6.58,0,0,0,6.8,6.6Z"/><path id="top" d="M83.5,13.4a6.44,6.44,0,0,0,6.7-6.6A6.6,6.6,0,0,0,83.5,0H6.8A6.74,6.74,0,0,0,0,6.8a6.58,6.58,0,0,0,6.8,6.6Z"/><path id="btm" d="M83.5,64.25a6.44,6.44,0,0,0,6.7-6.6,6.6,6.6,0,0,0-6.7-6.8H6.8A6.74,6.74,0,0,0,0,57.65a6.58,6.58,0,0,0,6.8,6.6Z"/></g></g></svg>